# xmcd
#
# Track frame offsets:
#	150
#	10815
#	28367
#	39032
#
# Disc length: 751 seconds
#
# Revision: 1
# Processed by: cddbd v1.5.1PL0 Copyright (c) Steve Scherf et al.
# Submitted via: CDex 1.50Beta5
#
DISCID=2402ed04
DTITLE=実用シリーズ - 蛍の光・仰げば尊し
DYEAR=1900
DGENRE=Unclassifiable
TTITLE0=蛍の光〈伴奏用〉
TTITLE1=仰げば尊し〈伴奏用〉
TTITLE2=蛍の光〈歌挿入〉
TTITLE3=仰げば尊し〈歌挿入〉
EXTD=
EXTT0=
EXTT1=
EXTT2=
EXTT3=
PLAYORDER=
